<?xml version="1.0" standalone="no"?>
<!DOCTYPE svg PUBLIC "-//W3C//DTD SVG 20010904//EN"
 "http://www.w3.org/TR/2001/REC-SVG-20010904/DTD/svg10.dtd">
<svg version="1.0" xmlns="http://www.w3.org/2000/svg"
 width="230.000000pt" height="230.000000pt" viewBox="0 0 230.000000 230.000000"
 preserveAspectRatio="xMidYMid meet">
<metadata>
Created by potrace 1.11, written by Peter Selinger 2001-2013
</metadata>
<g transform="translate(0.000000,230.000000) scale(0.100000,-0.100000)"
fill="#000000" stroke="none">
<path d="M1018 2279 c-9 -5 -33 -10 -54 -12 -22 -2 -46 -7 -54 -10 -8 -4 -26
-9 -40 -11 -14 -3 -26 -5 -27 -7 -2 -1 -6 -2 -10 -3 -5 -1 -15 -6 -23 -11 -8
-5 -19 -10 -25 -12 -5 -1 -21 -4 -34 -7 -12 -3 -28 -9 -35 -14 -6 -5 -22 -12
-36 -15 -29 -7 -180 -103 -197 -126 -7 -9 -13 -12 -13 -8 0 5 -12 -3 -27 -18
-16 -14 -45 -39 -67 -55 -21 -17 -35 -30 -30 -30 5 0 -5 -12 -22 -27 -27 -26
-75 -86 -114 -143 -8 -12 -23 -31 -32 -42 -17 -20 -22 -33 -19 -50 0 -5 -4 -8
-9 -8 -6 0 -10 -9 -10 -20 0 -11 -5 -20 -11 -20 -5 0 -7 -4 -4 -10 3 -5 2 -10
-2 -10 -10 0 -39 -70 -35 -83 1 -4 -4 -15 -13 -23 -18 -18 -20 -34 -3 -34 6 0
3 -6 -7 -14 -16 -12 -17 -16 -6 -30 11 -13 11 -17 -2 -22 -8 -3 -14 -13 -13
-22 2 -9 -4 -28 -13 -42 -13 -20 -16 -55 -16 -194 0 -122 3 -170 12 -173 7 -2
10 -10 7 -18 -3 -7 0 -16 6 -20 6 -4 8 -15 5 -25 -3 -10 -1 -21 5 -25 6 -3 7
-11 4 -17 -4 -6 1 -17 11 -25 18 -12 18 -13 1 -13 -13 0 -16 -3 -9 -12 6 -7
16 -30 22 -50 8 -23 19 -38 29 -39 14 0 13 -2 -3 -9 -11 -5 -14 -9 -7 -9 6 -1
12 -10 12 -21 0 -12 7 -20 18 -20 14 0 15 -2 2 -10 -10 -6 -11 -10 -3 -10 7 0
15 -11 19 -25 3 -14 10 -25 15 -25 5 0 8 -3 8 -7 -3 -20 2 -34 10 -29 5 3 14
-1 21 -9 7 -8 9 -15 6 -15 -15 0 17 -48 72 -107 18 -20 31 -38 28 -40 -7 -7
86 -93 100 -93 8 0 14 -7 14 -15 0 -14 12 -19 33 -16 4 0 7 -6 7 -15 0 -9 6
-14 13 -11 8 3 20 -3 28 -14 7 -10 20 -19 28 -19 8 0 11 -3 7 -7 -3 -4 12 -15
34 -25 22 -10 40 -23 40 -29 0 -6 4 -7 10 -4 5 3 10 2 10 -4 0 -10 20 -18 62
-26 12 -3 24 -9 26 -15 2 -6 8 -8 13 -4 5 3 9 0 9 -5 0 -6 3 -10 8 -10 22 4
42 -2 37 -11 -3 -6 1 -7 9 -4 9 3 16 2 16 -3 0 -6 12 -10 28 -9 15 1 33 -5 41
-12 10 -10 16 -10 21 -2 5 8 11 8 21 -2 18 -16 62 -19 71 -4 5 7 8 4 8 -7 0
-16 13 -17 149 -16 104 0 152 4 155 12 5 9 8 9 12 -1 5 -10 9 -10 20 -1 7 6
20 9 29 6 8 -4 17 -2 20 3 3 4 16 7 30 6 13 -2 26 3 29 10 3 8 12 11 20 8 18
-7 59 14 51 27 -4 5 -2 9 4 9 5 0 11 -4 13 -9 2 -5 19 -2 38 6 19 9 38 15 43
15 4 -1 7 3 7 10 0 6 3 9 6 5 4 -3 13 1 21 9 8 8 19 12 24 9 5 -4 9 -1 9 5 0
6 5 8 10 5 6 -3 10 -1 10 5 0 6 4 9 9 6 5 -3 11 1 15 9 3 8 15 15 26 15 11 0
19 6 18 13 -2 6 5 11 15 9 9 -2 17 2 17 8 0 5 5 10 10 10 12 0 26 11 76 58 18
18 34 37 34 42 0 6 7 10 16 10 8 0 29 14 46 30 16 17 26 30 23 30 -4 0 8 15
26 33 19 17 43 48 53 67 11 19 23 37 26 40 14 10 60 90 53 90 -5 0 -3 4 3 8
15 10 45 69 50 101 3 14 9 27 14 29 5 2 7 9 4 17 -3 7 0 16 6 20 9 6 9 10 -1
16 -11 7 -9 12 8 24 13 9 20 22 17 30 -4 8 -1 15 5 15 6 0 8 7 5 15 -4 8 -1
22 6 30 9 11 9 19 2 28 -7 8 -6 18 4 31 11 16 11 22 1 28 -9 6 -9 10 2 17 18
12 11 281 -8 304 -8 10 -9 17 -1 22 7 4 7 12 0 26 -6 11 -8 24 -5 29 3 6 1 10
-5 10 -7 0 -10 7 -6 15 3 8 1 15 -5 15 -6 0 -8 4 -4 9 3 5 1 12 -5 16 -6 4 -8
10 -5 15 3 4 -2 20 -10 36 -7 15 -12 31 -9 36 3 4 0 8 -6 8 -6 0 -8 5 -5 10 3
6 1 10 -4 10 -6 0 -10 3 -9 8 2 13 -45 107 -60 118 -8 6 -12 16 -9 21 4 6 -2
18 -13 28 -11 10 -17 22 -14 26 3 5 0 9 -5 9 -6 0 -11 6 -11 14 0 8 -7 16 -15
20 -8 3 -15 10 -15 15 0 15 -150 161 -166 161 -8 0 -14 7 -14 15 0 8 -3 14 -7
13 -14 -5 -83 43 -77 53 3 5 -7 14 -23 20 -15 6 -28 9 -29 7 0 -2 -8 5 -18 15
-10 9 -22 15 -27 12 -5 -4 -9 1 -9 9 0 9 -7 16 -15 16 -9 0 -33 9 -55 20 -22
11 -48 20 -60 20 -11 0 -20 5 -20 12 0 6 -3 8 -7 5 -3 -4 -12 -2 -20 4 -10 9
-13 8 -13 -1 0 -9 -7 -7 -20 5 -11 10 -20 15 -20 10 0 -4 -7 -2 -15 5 -8 7
-15 9 -15 6 0 -4 -8 -2 -18 3 -13 7 -23 6 -30 -1 -9 -9 -12 -8 -12 3 0 16 -6
17 -201 22 -75 3 -143 1 -151 -4z"/>
</g>
</svg>
